<svg width="25" height="25" viewBox="0 0 25 25" fill="none" xmlns="http://www.w3.org/2000/svg">
<path d="M4.01367 22.6426C3.46367 22.6426 2.99284 22.4467 2.60117 22.0551C2.20951 21.6634 2.01367 21.1926 2.01367 20.6426V10.6426C2.01367 10.0926 2.20951 9.62174 2.60117 9.23008C2.99284 8.83841 3.46367 8.64258 4.01367 8.64258H20.0137C20.5637 8.64258 21.0345 8.83841 21.4262 9.23008C21.8178 9.62174 22.0137 10.0926 22.0137 10.6426V20.6426C22.0137 21.1926 21.8178 21.6634 21.4262 22.0551C21.0345 22.4467 20.5637 22.6426 20.0137 22.6426H4.01367ZM10.0137 19.6426L16.0137 15.6426L10.0137 11.6426V19.6426ZM4.01367 7.64258V5.64258H20.0137V7.64258H4.01367ZM7.01367 4.64258V2.64258H17.0137V4.64258H7.01367Z" fill="#98B2C7"/>
</svg>
