<svg width="25" height="25" viewBox="0 0 25 25" fill="none" xmlns="http://www.w3.org/2000/svg">
<path d="M17.8027 16.2852C16.9694 16.2852 16.2611 15.9935 15.6777 15.4102C15.0944 14.8268 14.8027 14.1185 14.8027 13.2852C14.8027 12.4518 15.0944 11.7435 15.6777 11.1602C16.2611 10.5768 16.9694 10.2852 17.8027 10.2852C18.6361 10.2852 19.3444 10.5768 19.9277 11.1602C20.5111 11.7435 20.8027 12.4518 20.8027 13.2852C20.8027 14.1185 20.5111 14.8268 19.9277 15.4102C19.3444 15.9935 18.6361 16.2852 17.8027 16.2852ZM11.8027 23.2852V20.3852C11.8027 20.0352 11.8861 19.706 12.0527 19.3977C12.2194 19.0893 12.4527 18.8435 12.7527 18.6602C13.2861 18.3435 13.8486 18.081 14.4402 17.8727C15.0319 17.6643 15.6361 17.5102 16.2527 17.4102L17.8027 19.2852L19.3527 17.4102C19.9694 17.5102 20.5694 17.6643 21.1527 17.8727C21.7361 18.081 22.2944 18.3435 22.8277 18.6602C23.1277 18.8435 23.3652 19.0893 23.5402 19.3977C23.7152 19.706 23.8027 20.0352 23.8027 20.3852V23.2852H11.8027ZM9.80273 20.3852V21.2852H5.80273C5.25273 21.2852 4.7819 21.0893 4.39023 20.6977C3.99857 20.306 3.80273 19.8352 3.80273 19.2852V5.28516C3.80273 4.73516 3.99857 4.26432 4.39023 3.87266C4.7819 3.48099 5.25273 3.28516 5.80273 3.28516H19.8027C20.3527 3.28516 20.8236 3.48099 21.2152 3.87266C21.6069 4.26432 21.8027 4.73516 21.8027 5.28516V10.2852C21.2861 9.63516 20.7027 9.13932 20.0527 8.79766C19.4027 8.45599 18.6527 8.28516 17.8027 8.28516V7.28516H7.80273V9.28516H14.8027C14.4694 9.55182 14.1694 9.85182 13.9027 10.1852C13.6361 10.5185 13.4111 10.8852 13.2277 11.2852H7.80273V13.2852H12.8027C12.8027 13.6352 12.8402 13.9768 12.9152 14.3102C12.9902 14.6435 13.0944 14.9685 13.2277 15.2852H7.80273V17.2852H11.2527C10.8027 17.6685 10.4486 18.131 10.1902 18.6727C9.9319 19.2143 9.80273 19.7852 9.80273 20.3852Z" fill="#98B2C7"/>
</svg>
