<svg width="110" height="88" viewBox="0 0 110 88" fill="none" xmlns="http://www.w3.org/2000/svg">
<path d="M10.9814 87.5491C7.96149 87.5491 5.37721 86.4859 3.22852 84.3596C1.07983 82.2333 0.00366046 79.6742 0 76.6821V11.4803C0 8.49184 1.07617 5.93448 3.22852 3.80817C5.38087 1.68187 7.96515 0.616904 10.9814 0.613281H98.8323C101.852 0.613281 104.438 1.67824 106.591 3.80817C108.743 5.9381 109.817 8.49546 109.814 11.4803V76.6821C109.814 79.6705 108.739 82.2297 106.591 84.3596C104.442 86.4896 101.856 87.5527 98.8323 87.5491H10.9814ZM98.8323 22.3472L57.7894 47.7488C57.3319 48.0205 56.8524 48.2251 56.3509 48.3628C55.8494 48.5004 55.368 48.5674 54.9068 48.5638C54.4456 48.5602 53.9661 48.4932 53.4683 48.3628C52.9704 48.2324 52.4891 48.0277 52.0242 47.7488L10.9814 22.3472V76.6821H98.8323V22.3472ZM54.9068 38.6477L98.8323 11.4803H10.9814L54.9068 38.6477ZM10.9814 23.7056V15.6912V15.827V15.7618V23.7056Z" fill="white" fill-opacity="0.8"/>
</svg>
