<svg width="25" height="24" viewBox="0 0 25 24" fill="none" xmlns="http://www.w3.org/2000/svg">
<path d="M5.18945 21C4.63945 21 4.16862 20.8042 3.77695 20.4125C3.38529 20.0208 3.18945 19.55 3.18945 19V15H5.18945V19H9.18945V21H5.18945ZM15.1895 21V19H19.1895V15H21.1895V19C21.1895 19.55 20.9936 20.0208 20.602 20.4125C20.2103 20.8042 19.7395 21 19.1895 21H15.1895ZM3.18945 9V5C3.18945 4.45 3.38529 3.97917 3.77695 3.5875C4.16862 3.19583 4.63945 3 5.18945 3H9.18945V5H5.18945V9H3.18945ZM19.1895 9V5H15.1895V3H19.1895C19.7395 3 20.2103 3.19583 20.602 3.5875C20.9936 3.97917 21.1895 4.45 21.1895 5V9H19.1895ZM12.1895 15C11.3561 15 10.6478 14.7083 10.0645 14.125C9.48112 13.5417 9.18945 12.8333 9.18945 12C9.18945 11.1667 9.48112 10.4583 10.0645 9.875C10.6478 9.29167 11.3561 9 12.1895 9C13.0228 9 13.7311 9.29167 14.3145 9.875C14.8978 10.4583 15.1895 11.1667 15.1895 12C15.1895 12.8333 14.8978 13.5417 14.3145 14.125C13.7311 14.7083 13.0228 15 12.1895 15Z" fill="#98B2C7"/>
</svg>
