<svg width="110" height="138" viewBox="0 0 110 138" fill="none" xmlns="http://www.w3.org/2000/svg">
<path d="M54.9068 12.8115C43.5807 12.8115 32.7184 17.3685 24.7096 25.4801C16.7008 33.5916 12.2015 44.5932 12.2015 56.0647C12.2015 73.7491 23.0731 90.8093 35.0062 104.026C41.1078 110.759 47.7655 116.952 54.9068 122.539C55.9724 121.711 57.2231 120.701 58.6588 119.511C64.3923 114.742 69.7885 109.572 74.8075 104.039C86.7406 90.8094 97.6121 73.7552 97.6121 56.0647C97.6121 44.5932 93.1128 33.5916 85.104 25.4801C77.0952 17.3685 66.233 12.8115 54.9068 12.8115ZM54.9068 137.714L51.4477 135.305L51.4294 135.292L51.3928 135.261L51.2708 135.175L50.8132 134.847L49.166 133.63C40.8193 127.277 33.0654 120.162 26.0014 112.374C13.5315 98.5455 0 78.5316 0 56.0585C2.16994e-07 41.3095 5.78481 27.1646 16.0818 16.7354C26.3789 6.30629 40.3446 0.447266 54.9068 0.447266C69.469 0.447266 83.4348 6.30629 93.7318 16.7354C104.029 27.1646 109.814 41.3095 109.814 56.0585C109.814 78.5316 96.2822 98.5517 83.8122 112.362C76.7502 120.149 68.9983 127.264 60.6537 133.618C59.9586 134.144 59.257 134.661 58.549 135.169L58.4209 135.255L58.3843 135.286L58.3721 135.292L54.9068 137.714ZM54.9068 43.7066C51.6708 43.7066 48.5673 45.0086 46.2791 47.3262C43.9908 49.6438 42.7053 52.7871 42.7053 56.0647C42.7053 59.3422 43.9908 62.4856 46.2791 64.8031C48.5673 67.1207 51.6708 68.4227 54.9068 68.4227C58.1429 68.4227 61.2464 67.1207 63.5346 64.8031C65.8228 62.4856 67.1083 59.3422 67.1083 56.0647C67.1083 52.7871 65.8228 49.6438 63.5346 47.3262C61.2464 45.0086 58.1429 43.7066 54.9068 43.7066ZM30.5038 56.0647C30.5038 49.5096 33.0748 43.2229 37.6513 38.5878C42.2277 33.9526 48.4347 31.3486 54.9068 31.3486C61.3789 31.3486 67.5859 33.9526 72.1624 38.5878C76.7388 43.2229 79.3099 49.5096 79.3099 56.0647C79.3099 62.6198 76.7388 68.9064 72.1624 73.5416C67.5859 78.1768 61.3789 80.7808 54.9068 80.7808C48.4347 80.7808 42.2277 78.1768 37.6513 73.5416C33.0748 68.9064 30.5038 62.6198 30.5038 56.0647Z" fill="white" fill-opacity="0.8"/>
</svg>
