<svg width="25" height="25" viewBox="0 0 25 25" fill="none" xmlns="http://www.w3.org/2000/svg">
<path d="M2.80664 21.3213V3.32129H12.8066V7.32129H22.8066V21.3213H2.80664ZM4.80664 19.3213H6.80664V17.3213H4.80664V19.3213ZM4.80664 15.3213H6.80664V13.3213H4.80664V15.3213ZM4.80664 11.3213H6.80664V9.32129H4.80664V11.3213ZM4.80664 7.32129H6.80664V5.32129H4.80664V7.32129ZM8.80664 19.3213H10.8066V17.3213H8.80664V19.3213ZM8.80664 15.3213H10.8066V13.3213H8.80664V15.3213ZM8.80664 11.3213H10.8066V9.32129H8.80664V11.3213ZM8.80664 7.32129H10.8066V5.32129H8.80664V7.32129ZM12.8066 19.3213H20.8066V9.32129H12.8066V11.3213H14.8066V13.3213H12.8066V15.3213H14.8066V17.3213H12.8066V19.3213ZM16.8066 13.3213V11.3213H18.8066V13.3213H16.8066ZM16.8066 17.3213V15.3213H18.8066V17.3213H16.8066Z" fill="#98B2C7"/>
</svg>
