<svg width="25" height="24" viewBox="0 0 25 24" fill="none" xmlns="http://www.w3.org/2000/svg">
<path d="M4.95664 17.0999C4.00664 16.0999 3.28581 14.9916 2.79414 13.7749C2.30247 12.5582 2.05664 11.2999 2.05664 9.9999C2.05664 8.6999 2.30247 7.44157 2.79414 6.2249C3.28581 5.00824 4.00664 3.8999 4.95664 2.8999L6.15664 4.0999C5.35664 4.8999 4.75664 5.82074 4.35664 6.8624C3.95664 7.90407 3.75664 8.9499 3.75664 9.9999C3.75664 11.0499 3.95664 12.0957 4.35664 13.1374C4.75664 14.1791 5.35664 15.0999 6.15664 15.8999L4.95664 17.0999ZM7.35664 14.6999C6.70664 14.0499 6.21081 13.3166 5.86914 12.4999C5.52747 11.6832 5.35664 10.8499 5.35664 9.9999C5.35664 9.1499 5.52747 8.31657 5.86914 7.4999C6.21081 6.68324 6.70664 5.9499 7.35664 5.2999L8.55664 6.4999C8.05664 6.9499 7.68164 7.48324 7.43164 8.0999C7.18164 8.71657 7.05664 9.3499 7.05664 9.9999C7.05664 10.5999 7.18164 11.2082 7.43164 11.8249C7.68164 12.4416 8.05664 12.9999 8.55664 13.4999L7.35664 14.6999ZM7.05664 21.9999L10.4316 11.8749C10.165 11.6416 9.95247 11.3666 9.79414 11.0499C9.63581 10.7332 9.55664 10.3832 9.55664 9.9999C9.55664 9.2999 9.79831 8.70824 10.2816 8.2249C10.765 7.74157 11.3566 7.4999 12.0566 7.4999C12.7566 7.4999 13.3483 7.74157 13.8316 8.2249C14.315 8.70824 14.5566 9.2999 14.5566 9.9999C14.5566 10.3832 14.4775 10.7332 14.3191 11.0499C14.1608 11.3666 13.9483 11.6416 13.6816 11.8749L17.0566 21.9999H15.0566L14.4066 19.9999H9.73164L9.05664 21.9999H7.05664ZM10.3816 17.9999H13.7316L12.0566 12.9999L10.3816 17.9999ZM16.7566 14.6999L15.5566 13.4999C16.0566 13.0499 16.4316 12.5166 16.6816 11.8999C16.9316 11.2832 17.0566 10.6499 17.0566 9.9999C17.0566 9.3999 16.9316 8.79157 16.6816 8.1749C16.4316 7.55824 16.0566 6.9999 15.5566 6.4999L16.7566 5.2999C17.4066 5.9499 17.89 6.68324 18.2066 7.4999C18.5233 8.31657 18.7066 9.1499 18.7566 9.9999C18.7566 10.8499 18.5858 11.6832 18.2441 12.4999C17.9025 13.3166 17.4066 14.0499 16.7566 14.6999ZM19.1566 17.0999L17.9566 15.8999C18.7566 15.0999 19.3566 14.1791 19.7566 13.1374C20.1566 12.0957 20.3566 11.0499 20.3566 9.9999C20.3566 8.9499 20.1566 7.90407 19.7566 6.8624C19.3566 5.82074 18.7566 4.8999 17.9566 4.0999L19.1566 2.8999C20.1066 3.8999 20.8275 5.00824 21.3191 6.2249C21.8108 7.44157 22.0566 8.6999 22.0566 9.9999C22.0566 11.2999 21.8233 12.5582 21.3566 13.7749C20.89 14.9916 20.1566 16.0999 19.1566 17.0999Z" fill="#98B2C7"/>
</svg>
