<svg width="25" height="24" viewBox="0 0 25 24" fill="none" xmlns="http://www.w3.org/2000/svg">
<g clip-path="url(#clip0_155_257)">
<path d="M9.43945 22.4248C8.67279 22.4248 7.98529 22.2248 7.37695 21.8248C6.76862 21.4248 6.29779 20.8748 5.96445 20.1748C5.69779 20.5248 5.36029 20.7956 4.95195 20.9873C4.54362 21.179 4.12279 21.2748 3.68945 21.2748C2.83945 21.2748 2.12695 20.9831 1.55195 20.3998C0.976953 19.8165 0.689453 19.1081 0.689453 18.2748C0.689453 17.5581 0.922786 16.9123 1.38945 16.3373C1.85612 15.7623 2.44779 15.4331 3.16445 15.3498C2.93112 15.0165 2.75195 14.6623 2.62695 14.2873C2.50195 13.9123 2.43945 13.5165 2.43945 13.0998C2.43945 12.4331 2.61029 11.8081 2.95195 11.2248C3.29362 10.6415 3.77279 10.1665 4.38945 9.7998C4.47279 10.0998 4.58529 10.4206 4.72695 10.7623C4.86862 11.104 5.03112 11.3998 5.21445 11.6498C4.98112 11.8331 4.79779 12.054 4.66445 12.3123C4.53112 12.5706 4.46445 12.8415 4.46445 13.1248C4.46445 14.0581 4.84779 14.6331 5.61445 14.8498C6.38112 15.0665 7.10612 15.2415 7.78945 15.3748L8.26445 16.1748C8.08112 16.7081 7.92279 17.1623 7.78945 17.5373C7.65612 17.9123 7.58945 18.2498 7.58945 18.5498C7.58945 19.0498 7.76862 19.4873 8.12695 19.8623C8.48529 20.2373 8.92279 20.4248 9.43945 20.4248C10.0728 20.4248 10.5978 20.1415 11.0145 19.5748C11.4311 19.0081 11.7728 18.3415 12.0395 17.5748C12.3061 16.8081 12.5103 16.0331 12.652 15.2498C12.7936 14.4665 12.9061 13.8665 12.9895 13.4498L14.9395 13.9748C14.7895 14.7248 14.6061 15.5831 14.3895 16.5498C14.1728 17.5165 13.8686 18.4373 13.477 19.3123C13.0853 20.1873 12.5686 20.9248 11.927 21.5248C11.2853 22.1248 10.4561 22.4248 9.43945 22.4248ZM10.7895 15.3248C10.0228 14.6415 9.32695 14.004 8.70195 13.4123C8.07695 12.8206 7.53945 12.2456 7.08945 11.6873C6.63945 11.129 6.29362 10.5706 6.05195 10.0123C5.81029 9.45397 5.68945 8.8748 5.68945 8.2748C5.68945 7.19147 6.06029 6.27897 6.80195 5.5373C7.54362 4.79564 8.45612 4.4248 9.53945 4.4248C9.60612 4.4248 9.66445 4.42897 9.71445 4.4373C9.76445 4.44564 9.82279 4.4498 9.88945 4.4498C9.82279 4.28314 9.77279 4.11647 9.73945 3.9498C9.70612 3.78314 9.68945 3.60814 9.68945 3.4248C9.68945 2.59147 9.98112 1.88314 10.5645 1.2998C11.1478 0.716471 11.8561 0.424805 12.6895 0.424805C13.5228 0.424805 14.2311 0.716471 14.8145 1.2998C15.3978 1.88314 15.6895 2.59147 15.6895 3.4248C15.6895 3.60814 15.6728 3.77897 15.6395 3.9373C15.6061 4.09564 15.5561 4.25814 15.4895 4.4248H15.8395C16.8395 4.4248 17.6895 4.74564 18.3895 5.3873C19.0895 6.02897 19.5061 6.8248 19.6395 7.7748C19.3395 7.7248 19.002 7.6998 18.627 7.6998C18.252 7.6998 17.9061 7.71647 17.5895 7.7498C17.4728 7.36647 17.2603 7.0498 16.952 6.7998C16.6436 6.5498 16.2728 6.4248 15.8395 6.4248C15.2561 6.4248 14.802 6.59564 14.477 6.9373C14.152 7.27897 13.7061 7.7748 13.1395 8.4248H12.2145C11.6311 7.74147 11.177 7.2373 10.852 6.9123C10.527 6.5873 10.0895 6.4248 9.53945 6.4248C9.00612 6.4248 8.56445 6.5998 8.21445 6.9498C7.86445 7.2998 7.68945 7.74147 7.68945 8.2748C7.68945 8.65814 7.79779 9.05397 8.01445 9.4623C8.23112 9.87064 8.53529 10.304 8.92695 10.7623C9.31862 11.2206 9.79362 11.7081 10.352 12.2248C10.9103 12.7415 11.5311 13.2998 12.2145 13.8998L10.7895 15.3248ZM15.9145 22.4248C15.5478 22.4248 15.1853 22.3748 14.827 22.2748C14.4686 22.1748 14.1228 22.0165 13.7895 21.7998C13.9728 21.5665 14.1561 21.2915 14.3395 20.9748C14.5228 20.6581 14.6895 20.3665 14.8395 20.0998C15.0228 20.2165 15.2061 20.2998 15.3895 20.3498C15.5728 20.3998 15.7561 20.4248 15.9395 20.4248C16.4728 20.4248 16.9186 20.2373 17.277 19.8623C17.6353 19.4873 17.8145 19.0415 17.8145 18.5248C17.8145 18.2081 17.7478 17.8665 17.6145 17.4998C17.4811 17.1331 17.3228 16.6831 17.1395 16.1498L17.6145 15.3498C18.3145 15.2165 19.0436 15.0415 19.802 14.8248C20.5603 14.6081 20.9395 14.0331 20.9395 13.0998C20.9395 12.4331 20.6936 11.9498 20.202 11.6498C19.7103 11.3498 19.1728 11.1998 18.5895 11.1998C17.8895 11.1998 17.0728 11.3331 16.1395 11.5998C15.2061 11.8665 14.1145 12.2081 12.8645 12.6248L12.3395 10.6748C13.6395 10.2581 14.7978 9.90814 15.8145 9.6248C16.8311 9.34147 17.7645 9.1998 18.6145 9.1998C19.7645 9.1998 20.7728 9.54147 21.6395 10.2248C22.5061 10.9081 22.9395 11.8665 22.9395 13.0998C22.9395 13.5165 22.877 13.9123 22.752 14.2873C22.627 14.6623 22.4478 15.0165 22.2145 15.3498C22.9311 15.4331 23.5228 15.7623 23.9895 16.3373C24.4561 16.9123 24.6895 17.5581 24.6895 18.2748C24.6895 19.1081 24.402 19.8165 23.827 20.3998C23.252 20.9831 22.5395 21.2748 21.6895 21.2748C21.2561 21.2748 20.8353 21.179 20.427 20.9873C20.0186 20.7956 19.6811 20.5248 19.4145 20.1748C19.0811 20.8748 18.6103 21.4248 18.002 21.8248C17.3936 22.2248 16.6978 22.4248 15.9145 22.4248Z" fill="#98B2C7"/>
</g>
<defs>
<clipPath id="clip0_155_257">
<rect width="24" height="24" fill="white" transform="translate(0.689453)"/>
</clipPath>
</defs>
</svg>
