<svg width="25" height="25" viewBox="0 0 25 25" fill="none" xmlns="http://www.w3.org/2000/svg">
<path d="M12.873 22.9648C10.5564 22.3815 8.64388 21.0523 7.13555 18.9773C5.62721 16.9023 4.87305 14.5982 4.87305 12.0648V5.96484L12.873 2.96484L20.873 5.96484V12.0648C20.873 14.5982 20.1189 16.9023 18.6105 18.9773C17.1022 21.0523 15.1897 22.3815 12.873 22.9648ZM12.873 20.8648C14.4897 20.3648 15.8397 19.3773 16.923 17.9023C18.0064 16.4273 18.6397 14.7815 18.823 12.9648H12.873V5.08984L6.87305 7.33984V12.5148C6.87305 12.6315 6.88971 12.7815 6.92305 12.9648H12.873V20.8648Z" fill="#98B2C7"/>
</svg>
