<svg width="25" height="24" viewBox="0 0 25 24" fill="none" xmlns="http://www.w3.org/2000/svg">
<g clip-path="url(#clip0_155_255)">
<path d="M0.414062 18V16.425C0.414062 15.7083 0.780729 15.125 1.51406 14.675C2.2474 14.225 3.21406 14 4.41406 14C4.63073 14 4.83906 14.0042 5.03906 14.0125C5.23906 14.0208 5.43073 14.0417 5.61406 14.075C5.38073 14.425 5.20573 14.7917 5.08906 15.175C4.9724 15.5583 4.91406 15.9583 4.91406 16.375V18H0.414062ZM6.41406 18V16.375C6.41406 15.8417 6.5599 15.3542 6.85156 14.9125C7.14323 14.4708 7.55573 14.0833 8.08906 13.75C8.6224 13.4167 9.2599 13.1667 10.0016 13C10.7432 12.8333 11.5474 12.75 12.4141 12.75C13.2974 12.75 14.1099 12.8333 14.8516 13C15.5932 13.1667 16.2307 13.4167 16.7641 13.75C17.2974 14.0833 17.7057 14.4708 17.9891 14.9125C18.2724 15.3542 18.4141 15.8417 18.4141 16.375V18H6.41406ZM19.9141 18V16.375C19.9141 15.9417 19.8599 15.5333 19.7516 15.15C19.6432 14.7667 19.4807 14.4083 19.2641 14.075C19.4474 14.0417 19.6349 14.0208 19.8266 14.0125C20.0182 14.0042 20.2141 14 20.4141 14C21.6141 14 22.5807 14.2208 23.3141 14.6625C24.0474 15.1042 24.4141 15.6917 24.4141 16.425V18H19.9141ZM4.41406 13C3.86406 13 3.39323 12.8042 3.00156 12.4125C2.6099 12.0208 2.41406 11.55 2.41406 11C2.41406 10.4333 2.6099 9.95833 3.00156 9.575C3.39323 9.19167 3.86406 9 4.41406 9C4.98073 9 5.45573 9.19167 5.83906 9.575C6.2224 9.95833 6.41406 10.4333 6.41406 11C6.41406 11.55 6.2224 12.0208 5.83906 12.4125C5.45573 12.8042 4.98073 13 4.41406 13ZM20.4141 13C19.8641 13 19.3932 12.8042 19.0016 12.4125C18.6099 12.0208 18.4141 11.55 18.4141 11C18.4141 10.4333 18.6099 9.95833 19.0016 9.575C19.3932 9.19167 19.8641 9 20.4141 9C20.9807 9 21.4557 9.19167 21.8391 9.575C22.2224 9.95833 22.4141 10.4333 22.4141 11C22.4141 11.55 22.2224 12.0208 21.8391 12.4125C21.4557 12.8042 20.9807 13 20.4141 13ZM12.4141 12C11.5807 12 10.8724 11.7083 10.2891 11.125C9.70573 10.5417 9.41406 9.83333 9.41406 9C9.41406 8.15 9.70573 7.4375 10.2891 6.8625C10.8724 6.2875 11.5807 6 12.4141 6C13.2641 6 13.9766 6.2875 14.5516 6.8625C15.1266 7.4375 15.4141 8.15 15.4141 9C15.4141 9.83333 15.1266 10.5417 14.5516 11.125C13.9766 11.7083 13.2641 12 12.4141 12Z" fill="#98B2C7"/>
</g>
<defs>
<clipPath id="clip0_155_255">
<rect width="24" height="24" fill="white" transform="translate(0.414062)"/>
</clipPath>
</defs>
</svg>
