<svg width="110" height="105" viewBox="0 0 110 105" fill="none" xmlns="http://www.w3.org/2000/svg">
<path d="M75.3373 71.1777L77.905 68.6269L71.9419 62.6356L69.3854 65.1864L75.3373 71.1777ZM86.5148 67.5571L97.2755 73.4076L101.302 65.986L90.5465 60.1411L86.5148 67.5571ZM99.342 85.0299L91.3461 92.9864L97.298 98.9721L105.294 91.0212L99.342 85.0299ZM86.4697 95.5428C78.3048 96.3086 57.1888 95.6273 34.3159 72.8896L28.3584 78.8752C53.3147 103.691 77.0717 104.907 87.258 103.955L86.4697 95.5428ZM34.3159 72.8896C12.5186 51.2104 8.90349 32.9831 8.45302 25.0716L0.0178693 25.5502C0.580963 35.5057 5.05756 55.7096 28.3584 78.8752L34.3159 72.8896ZM42.0585 38.0903L43.6746 36.4799L37.7283 30.4942L36.1122 32.099L42.0585 38.0903ZM44.9584 16.0114L37.8634 6.52892L31.1007 11.5968L38.1956 21.0736L44.9584 16.0114ZM13.9826 4.46236L5.14203 13.2466L11.0996 19.2379L19.9345 10.4537L13.9826 4.46236ZM39.0853 35.0947C36.1009 32.099 36.1009 32.099 36.1009 32.1103H36.0897L36.0728 32.1328C35.8052 32.4026 35.5656 32.6988 35.3577 33.0169C35.0536 33.4673 34.7214 34.0586 34.4398 34.8075C33.7544 36.7407 33.5836 38.819 33.9443 40.8382C34.6988 45.709 38.0549 52.1452 46.6477 60.6929L52.6052 54.7016C44.5586 46.7057 42.6441 41.8405 42.2893 39.5431C42.1204 38.4507 42.295 37.9101 42.3457 37.7863C42.3794 37.7112 42.3794 37.6999 42.3457 37.7525C42.2955 37.8302 42.239 37.9036 42.1767 37.9721L42.1204 38.0284L42.0641 38.0791L39.0853 35.0947ZM46.6477 60.6929C55.2461 69.2407 61.7161 72.5742 66.5925 73.3175C69.087 73.7004 71.0972 73.3963 72.6232 72.8276C73.478 72.515 74.2766 72.0662 74.9882 71.4987L75.2698 71.2453L75.3092 71.2115L75.3261 71.1946L75.3317 71.1834C75.3317 71.1834 75.3373 71.1778 72.3586 68.1821C69.3742 65.1864 69.3911 65.1808 69.3911 65.1808L69.4023 65.1695L69.4136 65.1583L69.4474 65.1301L69.5037 65.0738L69.7177 64.9049C69.7702 64.8711 69.7571 64.8749 69.6782 64.9161C69.5375 64.9668 68.9856 65.1414 67.8763 64.9724C65.5451 64.6121 60.6462 62.6976 52.6052 54.7016L46.6477 60.6929ZM37.8634 6.52329C32.1199 -1.13479 20.8355 -2.35108 13.9826 4.46236L19.9345 10.4537C22.9302 7.47492 28.2458 7.78462 31.1007 11.5968L37.8634 6.52329ZM8.45865 25.0772C8.34603 23.1289 9.24135 21.0905 11.0996 19.2436L5.1364 13.2523C2.11258 16.2592 -0.269309 20.5162 0.0178693 25.5502L8.45865 25.0772ZM91.3461 92.9864C89.8032 94.5293 88.1365 95.3964 86.4753 95.5485L87.258 103.955C91.3968 103.567 94.781 101.483 97.3036 98.9777L91.3461 92.9864ZM43.6746 36.4799C49.221 30.9672 49.6321 22.2561 44.964 16.0171L38.2013 21.0793C40.4706 24.1143 40.1327 28.0954 37.7227 30.4998L43.6746 36.4799ZM97.2811 73.4132C101.882 75.9134 102.597 81.8033 99.3477 85.0355L105.305 91.0212C112.851 83.5151 110.525 70.9976 101.307 65.9917L97.2811 73.4132ZM77.905 68.6326C80.0673 66.4815 83.5472 65.9522 86.5204 67.5627L90.5521 60.1467C84.4482 56.8245 76.8802 57.7423 71.9475 62.6412L77.905 68.6326Z" fill="white" fill-opacity="0.8"/>
</svg>
