<svg width="25" height="24" viewBox="0 0 25 24" fill="none" xmlns="http://www.w3.org/2000/svg">
<path d="M12.5141 21C12.2307 21 11.9932 20.9042 11.8016 20.7125C11.6099 20.5208 11.5141 20.2833 11.5141 20C11.5141 19.8833 11.5391 19.7625 11.5891 19.6375C11.6391 19.5125 11.7141 19.4 11.8141 19.3L16.4391 14.675L15.7141 13.95L11.1141 18.575C11.0141 18.675 10.9057 18.75 10.7891 18.8C10.6724 18.85 10.5474 18.875 10.4141 18.875C10.1307 18.875 9.89323 18.7792 9.70156 18.5875C9.5099 18.3958 9.41406 18.1583 9.41406 17.875C9.41406 17.7083 9.43906 17.5708 9.48906 17.4625C9.53906 17.3542 9.60573 17.2583 9.68906 17.175L14.3141 12.55L13.6141 11.85L8.98906 16.45C8.88906 16.55 8.78073 16.625 8.66406 16.675C8.5474 16.725 8.41406 16.75 8.26406 16.75C7.9974 16.75 7.76406 16.65 7.56406 16.45C7.36406 16.25 7.26406 16.0167 7.26406 15.75C7.26406 15.6167 7.28906 15.4917 7.33906 15.375C7.38906 15.2583 7.46406 15.15 7.56406 15.05L12.1891 10.425L11.4641 9.725L6.86406 14.35C6.78073 14.4333 6.68073 14.5 6.56406 14.55C6.4474 14.6 6.30573 14.625 6.13906 14.625C5.85573 14.625 5.61823 14.5292 5.42656 14.3375C5.2349 14.1458 5.13906 13.9083 5.13906 13.625C5.13906 13.4917 5.16406 13.3667 5.21406 13.25C5.26406 13.1333 5.33906 13.025 5.43906 12.925L11.0141 7.35L14.7641 11.125C14.9474 11.3083 15.1641 11.4542 15.4141 11.5625C15.6641 11.6708 15.9141 11.725 16.1641 11.725C16.6974 11.725 17.1641 11.5375 17.5641 11.1625C17.9641 10.7875 18.1641 10.3083 18.1641 9.725C18.1641 9.49167 18.1224 9.25 18.0391 9C17.9557 8.75 17.8057 8.51667 17.5891 8.3L13.1141 3.825C13.3974 3.55833 13.7141 3.35417 14.0641 3.2125C14.4141 3.07083 14.7641 3 15.1141 3C15.5474 3 15.9474 3.07083 16.3141 3.2125C16.6807 3.35417 17.0141 3.575 17.3141 3.875L21.5391 8.125C21.8391 8.425 22.0599 8.75833 22.2016 9.125C22.3432 9.49167 22.4141 9.91667 22.4141 10.4C22.4141 10.7333 22.3391 11.0708 22.1891 11.4125C22.0391 11.7542 21.8224 12.0667 21.5391 12.35L13.2141 20.7C13.0807 20.8333 12.9641 20.9167 12.8641 20.95C12.7641 20.9833 12.6474 21 12.5141 21ZM3.93906 13L3.28906 12.35C3.00573 12.0833 2.78906 11.7667 2.63906 11.4C2.48906 11.0333 2.41406 10.65 2.41406 10.25C2.41406 9.81667 2.4974 9.41667 2.66406 9.05C2.83073 8.68333 3.03906 8.375 3.28906 8.125L7.51406 3.875C7.78073 3.60833 8.0974 3.39583 8.46406 3.2375C8.83073 3.07917 9.18906 3 9.53906 3C9.98906 3 10.3891 3.0625 10.7391 3.1875C11.0891 3.3125 11.4307 3.54167 11.7641 3.875L16.8891 9C16.9891 9.1 17.0641 9.20833 17.1141 9.325C17.1641 9.44167 17.1891 9.56667 17.1891 9.7C17.1891 9.96667 17.0891 10.2 16.8891 10.4C16.6891 10.6 16.4557 10.7 16.1891 10.7C16.0391 10.7 15.9141 10.6792 15.8141 10.6375C15.7141 10.5958 15.6057 10.5167 15.4891 10.4L10.9891 5.95L3.93906 13Z" fill="#98B2C7"/>
</svg>
