<svg width="118" height="118" viewBox="0 0 118 118" fill="none" xmlns="http://www.w3.org/2000/svg">
<path d="M4 59.0846C4 73.6468 9.78481 87.6125 20.0818 97.9096C30.3789 108.207 44.3446 113.991 58.9068 113.991C73.469 113.991 87.4348 108.207 97.7318 97.9096C108.029 87.6125 113.814 73.6468 113.814 59.0846C113.814 44.5224 108.029 30.5566 97.7318 20.2596C87.4348 9.96255 73.469 4.17773 58.9068 4.17773C44.3446 4.17773 30.3789 9.96255 20.0818 20.2596C9.78481 30.5566 4 44.5224 4 59.0846Z" stroke="white" stroke-opacity="0.8" stroke-width="7.57038" stroke-linejoin="round"/>
<path d="M35.3672 59.0846C35.3672 44.5224 37.8464 30.5566 42.2594 20.2596C46.6724 9.96255 52.6577 4.17773 58.8987 4.17773C65.1396 4.17773 71.125 9.96255 75.538 20.2596C79.951 30.5566 82.4302 44.5224 82.4302 59.0846C82.4302 73.6468 79.951 87.6125 75.538 97.9096C71.125 108.207 65.1396 113.991 58.8987 113.991C52.6577 113.991 46.6724 108.207 42.2594 97.9096C37.8464 87.6125 35.3672 73.6468 35.3672 59.0846Z" stroke="white" stroke-opacity="0.8" stroke-width="7.57038" stroke-linejoin="round"/>
<path d="M7.90625 77.3741H109.876M7.90625 40.7695H109.876" stroke="white" stroke-opacity="0.8" stroke-width="7.57038" stroke-linecap="round"/>
</svg>
